<?xml version="1.0" encoding="UTF-8" standalone="no"?>
<svg
   xmlns:osb="http://www.openswatchbook.org/uri/2009/osb"
   xmlns:dc="http://purl.org/dc/elements/1.1/"
   xmlns:cc="http://creativecommons.org/ns#"
   xmlns:rdf="http://www.w3.org/1999/02/22-rdf-syntax-ns#"
   xmlns:svg="http://www.w3.org/2000/svg"
   xmlns="http://www.w3.org/2000/svg"
   width="13.229167mm"
   height="13.229167mm"
   viewBox="0 0 13.229167 13.229167"
   version="1.1"
   id="svg8">
  <defs
     id="defs2">
    <rect
       x="32.684103"
       y="37.628847"
       width="15.452326"
       height="13.292324"
       id="rect845" />
    <linearGradient
       id="linearGradient837"
       osb:paint="solid">
      <stop
         style="stop-color:#61afef;stop-opacity:1;"
         offset="0"
         id="stop835" />
    </linearGradient>
  </defs>
  <metadata
     id="metadata5">
    <rdf:RDF>
      <cc:Work
         rdf:about="">
        <dc:format>image/svg+xml</dc:format>
        <dc:type
           rdf:resource="http://purl.org/dc/dcmitype/StillImage" />
        <dc:title></dc:title>
      </cc:Work>
    </rdf:RDF>
  </metadata>
  <g
     id="layer1"
     transform="translate(-29.084099,-33.751919)">
    <path
       id="rect10"
       style="fill:#61afef;fill-opacity:1;stroke-width:3.77953"
       d="M 0 0 L 0 50 L 50 50 L 50 0 L 0 0 z M 13.207031 11.769531 L 17.310547 11.769531 L 22.855469 35.097656 L 24.763672 35.097656 L 24.763672 38.230469 L 17.527344 38.230469 L 17.527344 35.097656 L 19.21875 35.097656 L 18.066406 29.806641 L 12.486328 29.806641 L 11.333984 35.097656 L 13.027344 35.097656 L 13.027344 38.230469 L 5.7558594 38.230469 L 5.7558594 35.097656 L 7.6621094 35.097656 L 13.207031 11.769531 z M 26.498047 11.769531 L 35.857422 11.769531 C 36.841422 11.769531 37.800328 11.913172 38.736328 12.201172 C 39.672328 12.465172 40.489547 12.933469 41.185547 13.605469 C 41.881547 14.253469 42.385266 15.057578 42.697266 16.017578 C 43.009266 16.953578 43.166016 17.901328 43.166016 18.861328 C 43.166016 19.413328 43.117484 19.978688 43.021484 20.554688 C 42.925484 21.106687 42.744469 21.634672 42.480469 22.138672 C 42.216469 22.618672 41.880656 23.062703 41.472656 23.470703 C 41.064656 23.854703 40.609469 24.177406 40.105469 24.441406 C 40.729469 24.681406 41.305984 25.006063 41.833984 25.414062 C 42.385984 25.822062 42.852328 26.301516 43.236328 26.853516 C 43.620328 27.405516 43.885297 28.017453 44.029297 28.689453 C 44.173297 29.337453 44.244141 29.997922 44.244141 30.669922 C 44.244141 31.389922 44.160187 32.098922 43.992188 32.794922 C 43.848188 33.490922 43.596328 34.149438 43.236328 34.773438 C 42.876328 35.373437 42.421141 35.914531 41.869141 36.394531 C 41.317141 36.850531 40.705203 37.221766 40.033203 37.509766 C 39.385203 37.773766 38.700469 37.965938 37.980469 38.085938 C 37.284469 38.181937 36.577422 38.230469 35.857422 38.230469 L 26.498047 38.230469 L 26.498047 35.097656 L 28.333984 35.097656 L 28.333984 14.902344 L 26.498047 14.902344 L 26.498047 11.769531 z M 31.933594 14.902344 L 31.933594 22.966797 L 35.857422 22.966797 C 36.385422 22.966797 36.900297 22.882844 37.404297 22.714844 C 37.908297 22.522844 38.330016 22.233609 38.666016 21.849609 C 39.026016 21.441609 39.264766 20.986422 39.384766 20.482422 C 39.528766 19.954422 39.601562 19.426437 39.601562 18.898438 C 39.601562 18.394438 39.528766 17.890719 39.384766 17.386719 C 39.264766 16.858719 39.026016 16.401578 38.666016 16.017578 C 38.330016 15.633578 37.908297 15.357453 37.404297 15.189453 C 36.900297 14.997453 36.385422 14.902344 35.857422 14.902344 L 31.933594 14.902344 z M 15.259766 16.953125 C 15.139766 17.553125 15.007281 18.165063 14.863281 18.789062 C 14.743281 19.389062 14.610797 19.989844 14.466797 20.589844 L 13.171875 26.673828 L 17.382812 26.673828 L 16.050781 20.589844 L 15.619141 18.789062 C 15.499141 18.165063 15.379766 17.553125 15.259766 16.953125 z M 31.933594 26.097656 L 31.933594 35.097656 L 35.857422 35.097656 C 36.481422 35.097656 37.104516 35.013703 37.728516 34.845703 C 38.352516 34.677703 38.893609 34.390422 39.349609 33.982422 C 39.805609 33.574422 40.141422 33.070703 40.357422 32.470703 C 40.573422 31.846703 40.681641 31.221656 40.681641 30.597656 C 40.681641 29.973656 40.573422 29.361719 40.357422 28.761719 C 40.141422 28.161719 39.805609 27.658 39.349609 27.25 C 38.893609 26.818 38.352516 26.517609 37.728516 26.349609 C 37.128516 26.181609 36.505422 26.097656 35.857422 26.097656 L 31.933594 26.097656 z "
       transform="matrix(0.26458333,0,0,0.26458333,29.084099,33.751919)" />
  </g>
</svg>
